<?xml version="1.0" encoding="UTF-8"?>
<svg width="18px" height="19px" viewBox="0 0 18 19" version="1.1" xmlns="http://www.w3.org/2000/svg" xmlns:xlink="http://www.w3.org/1999/xlink">
    <!-- Generator: Sketch 44.1 (41455) - http://www.bohemiancoding.com/sketch -->
    <title></title>
    <desc>Created with Sketch.</desc>
    <defs></defs>
    <g id="Page-1" stroke="none" stroke-width="1" fill="none" fill-rule="evenodd">
        <g id="Artboard" transform="translate(-27.000000, -25.000000)" fill="#333333">
            <path d="M31.2539062,42 L32.3203125,40.9335938 L29.5664062,38.1796875 L28.5,39.2460938 L28.5,40.5 L30,40.5 L30,42 L31.2539062,42 Z M37.3828125,31.125 C37.3828125,30.9531241 37.2968759,30.8671875 37.125,30.8671875 C37.0468746,30.8671875 36.980469,30.894531 36.9257812,30.9492188 L30.5742188,37.3007812 C30.519531,37.355469 30.4921875,37.4218746 30.4921875,37.5 C30.4921875,37.6718759 30.5781241,37.7578125 30.75,37.7578125 C30.8281254,37.7578125 30.894531,37.730469 30.9492188,37.6757812 L37.3007812,31.3242188 C37.355469,31.269531 37.3828125,31.2031254 37.3828125,31.125 Z M36.75,28.875 L41.625,33.75 L31.875,43.5 L27,43.5 L27,38.625 L36.75,28.875 Z M44.7539062,30 C44.7539062,30.4140646 44.6093764,30.7656236 44.3203125,31.0546875 L42.375,33 L37.5,28.125 L39.4453125,26.1914062 C39.7265639,25.8945298 40.0781229,25.7460938 40.5,25.7460938 C40.9140646,25.7460938 41.2695298,25.8945298 41.5664062,26.1914062 L44.3203125,28.9335938 C44.6093764,29.2382828 44.7539062,29.593748 44.7539062,30 Z" id=""></path>
        </g>
    </g>
</svg>