<?xml version="1.0" encoding="UTF-8"?>
<svg width="33px" height="30px" viewBox="0 0 33 30" version="1.1" xmlns="http://www.w3.org/2000/svg" xmlns:xlink="http://www.w3.org/1999/xlink">
    <!-- Generator: Sketch 51 (57462) - http://www.bohemiancoding.com/sketch -->
    <title>icon_align-right</title>
    <desc>Created with Sketch.</desc>
    <defs></defs>
    <g id="Page-1" stroke="none" stroke-width="1" fill="none" fill-rule="evenodd">
        <g id="icon_align-right">
            <rect id="Rectangle-3-Copy-9" fill-opacity="0.177026721" fill="#FFFFFF" opacity="0.02" x="0" y="0" width="33" height="30"></rect>
            <path d="M28,21.4285714 L28,23.1428571 C28,23.3750012 27.9151794,23.575892 27.7455357,23.7455357 C27.575892,23.9151794 27.3750012,24 27.1428571,24 L4.85714286,24 C4.62499884,24 4.42410799,23.9151794 4.25446429,23.7455357 C4.08482058,23.575892 4,23.3750012 4,23.1428571 L4,21.4285714 C4,21.1964274 4.08482058,20.9955366 4.25446429,20.8258929 C4.42410799,20.6562492 4.62499884,20.5714286 4.85714286,20.5714286 L27.1428571,20.5714286 C27.3750012,20.5714286 27.575892,20.6562492 27.7455357,20.8258929 C27.9151794,20.9955366 28,21.1964274 28,21.4285714 Z M28,16.2857143 L28,18 C28,18.232144 27.9151794,18.4330349 27.7455357,18.6026786 C27.575892,18.7723223 27.3750012,18.8571429 27.1428571,18.8571429 L10,18.8571429 C9.76785598,18.8571429 9.56696513,18.7723223 9.39732143,18.6026786 C9.22767772,18.4330349 9.14285714,18.232144 9.14285714,18 L9.14285714,16.2857143 C9.14285714,16.0535703 9.22767772,15.8526794 9.39732143,15.6830357 C9.56696513,15.513392 9.76785598,15.4285714 10,15.4285714 L27.1428571,15.4285714 C27.3750012,15.4285714 27.575892,15.513392 27.7455357,15.6830357 C27.9151794,15.8526794 28,16.0535703 28,16.2857143 Z M28,11.1428571 L28,12.8571429 C28,13.0892869 27.9151794,13.2901777 27.7455357,13.4598214 C27.575892,13.6294651 27.3750012,13.7142857 27.1428571,13.7142857 L6.57142857,13.7142857 C6.33928455,13.7142857 6.13839371,13.6294651 5.96875,13.4598214 C5.79910629,13.2901777 5.71428571,13.0892869 5.71428571,12.8571429 L5.71428571,11.1428571 C5.71428571,10.9107131 5.79910629,10.7098223 5.96875,10.5401786 C6.13839371,10.3705349 6.33928455,10.2857143 6.57142857,10.2857143 L27.1428571,10.2857143 C27.3750012,10.2857143 27.575892,10.3705349 27.7455357,10.5401786 C27.9151794,10.7098223 28,10.9107131 28,11.1428571 Z M28,6 L28,7.71428571 C28,7.94642973 27.9151794,8.14732058 27.7455357,8.31696429 C27.575892,8.48660799 27.3750012,8.57142857 27.1428571,8.57142857 L11.7142857,8.57142857 C11.4821417,8.57142857 11.2812508,8.48660799 11.1116071,8.31696429 C10.9419634,8.14732058 10.8571429,7.94642973 10.8571429,7.71428571 L10.8571429,6 C10.8571429,5.76785598 10.9419634,5.56696513 11.1116071,5.39732143 C11.2812508,5.22767772 11.4821417,5.14285714 11.7142857,5.14285714 L27.1428571,5.14285714 C27.3750012,5.14285714 27.575892,5.22767772 27.7455357,5.39732143 C27.9151794,5.56696513 28,5.76785598 28,6 Z" id="" fill="#000000"></path>
        </g>
    </g>
</svg>