<svg version="1.1" xmlns="http://www.w3.org/2000/svg" viewBox="0 0 188.1211140267551 22.429596662521362">
  <!-- svg-source:excalidraw -->
  <defs>
    <style>
      @font-face {
        font-family: "Virgil";
        src: url("https://excalidraw.com/FG_Virgil.woff2");
      }
      @font-face {
        font-family: "Cascadia";
        src: url("https://excalidraw.com/Cascadia.woff2");
      }
    </style>
  </defs>
  <g><g transform="translate(176.66097391024232 11.576435811817646) rotate(0 -82.60041689686477 -0.3616374805569649)"><path d="M1.4601401165127754 -1.576435811817646 C-34.739392783492804 -0.12003420285880573, -68.87556356191635 -1.5211875288933516, -164.7351235076785 0.8531608507037163 M-0.5129220522940159 0.7396137155592442 C-41.003958088159564 -1.591882313117385, -81.17492957934738 -1.4524876721948385, -166.66097391024232 0.12837869301438332" stroke="#a61e4d" stroke-width="4" fill="none"></path></g><g transform="translate(176.66097391024232 11.576435811817646) rotate(0 -82.60041689686477 -0.3616374805569649)"><path d="M-137.16983514022814 -12.137449734261004 C-144.56101056378878 -7.962676372720587, -149.934533846193 -7.135392667651217, -165.39609741792083 0.9815395437180996 M-139.14289730903494 -9.821400206884114 C-145.55151993567856 -8.991353041731648, -151.73090080111209 -6.218399744324548, -167.32194782048464 0.25675738602876663" stroke="#a61e4d" stroke-width="4" fill="none"></path></g><g transform="translate(176.66097391024232 11.576435811817646) rotate(0 -82.60041689686477 -0.3616374805569649)"><path d="M-136.8568339118482 8.381371689419066 C-144.4010038518017 8.277437717779895, -149.83977906695782 4.827125572453139, -165.39609741792083 0.9815395437180996 M-138.829896080655 10.697421216795956 C-145.48997205608643 6.471023593938448, -151.74646741475115 4.188729907241825, -167.32194782048464 0.25675738602876663" stroke="#a61e4d" stroke-width="4" fill="none"></path></g></g></svg>