<svg version="1.1" xmlns="http://www.w3.org/2000/svg" viewBox="0 0 188.72009848430753 22.30000376701355">
  <!-- svg-source:excalidraw -->
  <defs>
    <style>
      @font-face {
        font-family: "Virgil";
        src: url("https://excalidraw.com/FG_Virgil.woff2");
      }
      @font-face {
        font-family: "Cascadia";
        src: url("https://excalidraw.com/Cascadia.woff2");
      }
    </style>
  </defs>
  <g><g transform="translate(9.826434724032879 11.83056379109621) rotate(0 84.53361451812088 -0.6805619075894356)"><path d="M0.17356527596712112 -1.8305637910962105 C56.50017650537193 0.4254631865397096, 112.75001313760878 -0.4407627713307738, 168.86692775040865 0.4694399759173393 M0.42658042535185814 -0.5362878404557705 C54.39795828424394 -1.4515040882304309, 106.58368779718876 -0.32920692045241573, 168.89366376027465 -0.9566277824342251" stroke="#087f5b" stroke-width="4" fill="none"></path></g><g transform="translate(9.826434724032879 11.83056379109621) rotate(0 84.53361451812088 -0.6805619075894356)"><path d="M140.91382376240702 7.5755190509738455 C150.85651782937816 5.473036825931612, 160.73120759022834 1.1947849818024183, 168.7605915106833 -0.48718780651688576 M141.16683891179176 8.869795001614285 C150.55870278885 5.5618814673750325, 158.11664294079975 3.400713615225163, 168.7873275205493 -1.9132555648684502" stroke="#087f5b" stroke-width="4" fill="none"></path></g><g transform="translate(9.826434724032879 11.83056379109621) rotate(0 84.53361451812088 -0.6805619075894356)"><path d="M140.83944737914572 -12.945554764483578 C150.8239982489061 -8.290768842527493, 160.72317717617318 -5.812252345891022, 168.7605915106833 -0.48718780651688576 M141.09246252853046 -11.651278813843138 C150.41229405869242 -8.457480969147605, 157.9938006559089 -4.116467057668834, 168.7873275205493 -1.9132555648684502" stroke="#087f5b" stroke-width="4" fill="none"></path></g></g></svg>