<svg xmlns="http://www.w3.org/2000/svg" id="graphic" fill="currentColor" font-family="Source Sans Pro" width="185" height="149.0833282470703"><g class="facets"><g class="facet" transform="" opacity="1"><g class="fl-chart"><clipPath class="fl-data-clip-path" id="fl-chart-layout-1-clip-path"><rect x="23.366666793823242" y="6.3" width="151.3433331489563" height="121.28332824707032"/></clipPath><g class="fl-chart-background"><rect class="fl-chart-fill" x="23.366666793823242" y="6.3" width="151.3433331489563" height="121.28332824707032" fill="none"/><image class="fl-chart-image" x="23.366666793823242" y="6.3" width="151.3433331489563" height="121.28332824707032" preserveAspectRatio="none"/><rect class="fl-chart-interaction" style="opacity: 0;" x="23.366666793823242" y="6.3" width="151.3433331489563" height="121.28332824707032"/></g><g class="fl-data-background" clip-path="url(#fl-chart-layout-1-clip-path)"/><g class="fl-gridlines" style="pointer-events: none;"><g class="fl-gridlines-vertical"/><g class="fl-gridlines-horizontal"><line style="shape-rendering: crispedges; stroke: rgb(238, 238, 238); stroke-width: 1px;" x1="23.366666793823242" x2="174.70999994277955" y1="127.58332824707031" y2="127.58332824707031"/><line style="shape-rendering: crispedges; stroke: rgb(238, 238, 238); stroke-width: 1px;" x1="23.366666793823242" x2="174.70999994277955" y1="90.2653810941256" y2="90.2653810941256"/><line style="shape-rendering: crispedges; stroke: rgb(238, 238, 238); stroke-width: 1px;" x1="23.366666793823242" x2="174.70999994277955" y1="52.94743394118088" y2="52.94743394118088"/><line style="shape-rendering: crispedges; stroke: rgb(238, 238, 238); stroke-width: 1px;" x1="23.366666793823242" x2="174.70999994277955" y1="15.629486788236171" y2="15.629486788236171"/></g></g><g class="fl-axes"><g class="fl-x-axes"><g class="fl-axis fl-x-axis fl-bottom-axis"><g class="fl-axis-line"><line style="shape-rendering: crispedges; stroke-linecap: square; stroke-width: 1px; stroke: rgb(238, 238, 238);" x1="23.366666793823242" x2="174.70999994277955" y1="127.58332824707031" y2="127.58332824707031"/></g><g class="fl-axis-ticks"><g transform="translate(174.7100067138672, 127.58332824707031)"><line y2="5" style="stroke: rgb(238, 238, 238); stroke-width: 1px;"/><text text-anchor="end" transform="translate(8.933333396911621, 13.4399995803833)" style="user-select: none; cursor: default; fill: rgb(79, 79, 79); font-size: 9px; font-weight: normal;"><tspan x="0" dy="0">2017</tspan></text></g><g transform="translate(159.54666137695312, 127.58332824707031)"><line y2="5" style="stroke: rgb(238, 238, 238); stroke-width: 1px;"/><text text-anchor="end" transform="translate(8.933333396911621, 13.4399995803833)" style="user-select: none; cursor: default; fill: rgb(79, 79, 79); font-size: 9px; font-weight: normal; opacity: 0;"><tspan x="0" dy="0">2016</tspan></text></g><g transform="translate(144.4247589111328, 127.58332824707031)"><line y2="5" style="stroke: rgb(238, 238, 238); stroke-width: 1px;"/><text text-anchor="end" transform="translate(8.933333396911621, 13.4399995803833)" style="user-select: none; cursor: default; fill: rgb(79, 79, 79); font-size: 9px; font-weight: normal; opacity: 1;"><tspan x="0" dy="0">2015</tspan></text></g><g transform="translate(129.3028564453125, 127.58332824707031)"><line y2="5" style="stroke: rgb(238, 238, 238); stroke-width: 1px;"/><text text-anchor="end" transform="translate(8.933333396911621, 13.4399995803833)" style="user-select: none; cursor: default; fill: rgb(79, 79, 79); font-size: 9px; font-weight: normal; opacity: 0;"><tspan x="0" dy="0">2014</tspan></text></g><g transform="translate(114.18095397949219, 127.58332824707031)"><line y2="5" style="stroke: rgb(238, 238, 238); stroke-width: 1px;"/><text text-anchor="end" transform="translate(8.933333396911621, 13.4399995803833)" style="user-select: none; cursor: default; fill: rgb(79, 79, 79); font-size: 9px; font-weight: normal; opacity: 1;"><tspan x="0" dy="0">2013</tspan></text></g><g transform="translate(99.01761627197266, 127.58332824707031)"><line y2="5" style="stroke: rgb(238, 238, 238); stroke-width: 1px;"/><text text-anchor="end" transform="translate(8.933333396911621, 13.4399995803833)" style="user-select: none; cursor: default; fill: rgb(79, 79, 79); font-size: 9px; font-weight: normal; opacity: 0;"><tspan x="0" dy="0">2012</tspan></text></g><g transform="translate(83.89571380615234, 127.58332824707031)"><line y2="5" style="stroke: rgb(238, 238, 238); stroke-width: 1px;"/><text text-anchor="end" transform="translate(8.933333396911621, 13.4399995803833)" style="user-select: none; cursor: default; fill: rgb(79, 79, 79); font-size: 9px; font-weight: normal;"><tspan x="0" dy="0">2011</tspan></text></g><g transform="translate(68.77381134033203, 127.58332824707031)"><line y2="5" style="stroke: rgb(238, 238, 238); stroke-width: 1px;"/><text text-anchor="end" transform="translate(8.933333396911621, 13.4399995803833)" style="user-select: none; cursor: default; fill: rgb(79, 79, 79); font-size: 9px; font-weight: normal; opacity: 0;"><tspan x="0" dy="0">2010</tspan></text></g><g transform="translate(53.65190505981445, 127.58332824707031)"><line y2="5" style="stroke: rgb(238, 238, 238); stroke-width: 1px;"/><text text-anchor="end" transform="translate(8.933333396911621, 13.4399995803833)" style="user-select: none; cursor: default; fill: rgb(79, 79, 79); font-size: 9px; font-weight: normal; opacity: 1;"><tspan x="0" dy="0">2009</tspan></text></g><g transform="translate(38.48857116699219, 127.58332824707031)"><line y2="5" style="stroke: rgb(238, 238, 238); stroke-width: 1px;"/><text text-anchor="end" transform="translate(8.933333396911621, 13.4399995803833)" style="user-select: none; cursor: default; fill: rgb(79, 79, 79); font-size: 9px; font-weight: normal; opacity: 0;"><tspan x="0" dy="0">2008</tspan></text></g><g transform="translate(23.366666793823242, 127.58332824707031)"><line y2="5" style="stroke: rgb(238, 238, 238); stroke-width: 1px;"/><text text-anchor="end" transform="translate(8.933333396911621, 13.4399995803833)" style="user-select: none; cursor: default; fill: rgb(79, 79, 79); font-size: 9px; font-weight: normal; opacity: 1;"><tspan x="0" dy="0">2007</tspan></text></g></g><g class="fl-axis-title"/></g><g class="fl-axis fl-x-axis fl-top-axis"><g class="fl-axis-line"/><g class="fl-axis-ticks"/><g class="fl-axis-title"/></g></g><g class="fl-y-axes"><g class="fl-axis fl-y-axis fl-left-axis"><g class="fl-axis-line"><line style="stroke: rgb(238, 238, 238); shape-rendering: crispedges; stroke-linecap: square; stroke-width: 1px;" y1="6.3" y2="127.58332824707031" x1="23.366666793823242" x2="23.366666793823242"/></g><g class="fl-axis-ticks"><g transform="translate(23.366666793823242, 127.58332824707031)"><line x2="-3" style="stroke: rgb(238, 238, 238); stroke-width: 1px;"/><text text-anchor="end" transform="translate(-5.5, 2.9700000286102295)" style="user-select: none; cursor: default; fill: rgb(79, 79, 79); font-size: 9px; font-weight: normal;"><tspan x="0" dy="0">0€</tspan></text></g><g transform="translate(23.366666793823242, 15.629487037658691)"><line x2="-3" style="stroke: rgb(238, 238, 238); stroke-width: 1px;"/><text text-anchor="end" transform="translate(-5.5, 2.9700000286102295)" style="user-select: none; cursor: default; fill: rgb(79, 79, 79); font-size: 9px; font-weight: normal; opacity: 1;"><tspan x="0" dy="0">600€</tspan></text></g><g transform="translate(23.366666793823242, 52.94743347167969)"><line x2="-3" style="stroke: rgb(238, 238, 238); stroke-width: 1px;"/><text text-anchor="end" transform="translate(-5.5, 2.9700000286102295)" style="user-select: none; cursor: default; fill: rgb(79, 79, 79); font-size: 9px; font-weight: normal; opacity: 1;"><tspan x="0" dy="0">400€</tspan></text></g><g transform="translate(23.366666793823242, 90.265380859375)"><line x2="-3" style="stroke: rgb(238, 238, 238); stroke-width: 1px;"/><text text-anchor="end" transform="translate(-5.5, 2.9700000286102295)" style="user-select: none; cursor: default; fill: rgb(79, 79, 79); font-size: 9px; font-weight: normal; opacity: 1;"><tspan x="0" dy="0">200€</tspan></text></g></g><g class="fl-axis-title"/></g><g class="fl-axis fl-y-axis fl-right-axis"><g class="fl-axis-line"/><g class="fl-axis-ticks"/><g class="fl-axis-title"/></g></g></g><g class="fl-data-foreground" clip-path="url(#fl-chart-layout-1-clip-path)"><g class="series"><path style="opacity: 0;" data-target="point-0-0" d="M23.366666793823242,82.9296056325355L30.41010066776267,82.9296056325355L32.7132134991376,127.58332824707031L23.366666793823242,127.58332824707031L23.366666793823242,82.9296056325355Z"/><path style="opacity: 0;" data-target="point-0-1" d="M47.12387900277885,127.58332824707031L32.7132134991376,127.58332824707031L30.41010066776267,82.9296056325355L33.81482634057628,80.36399676577055L45.13405536503073,80.36399676577054L45.72345099854692,80.74930457012469L47.12387900277885,127.58332824707031Z"/><path style="opacity: 0;" data-target="point-0-2" d="M47.12387900277885,127.58332824707031L45.72345099854692,80.74930457012469L59.23997844489294,80.74930457012469L68.61330146838114,127.58332824707031L47.12387900277885,127.58332824707031Z"/><path style="opacity: 0;" data-target="point-0-3" d="M77.48436167626,81.28388416309063L71.43439476356356,127.58332824707031L68.61330146838114,127.58332824707031L59.23997844489294,80.74930457012469L61.007298629495516,79.39373013979399L75.28503293006246,79.39373013979399L77.48436167626,81.28388416309063Z"/><path style="opacity: 0;" data-target="point-0-4" d="M93.52387029053605,84.80483247697097L82.70831727152435,127.58332824707031L71.43439476356356,127.58332824707031L77.48436167626,81.28388416309063L89.71634074855098,81.28388416309063L93.52387029053605,84.80483247697097Z"/><path style="opacity: 0;" data-target="point-0-5" d="M105.75964408259061,84.80483247697097L106.70235877224738,85.5642527015334L106.24217686263877,127.58332824707031L82.70831727152435,127.58332824707031L93.52387029053605,84.80483247697097L105.75964408259061,84.80483247697097Z"/><path style="opacity: 0;" data-target="point-0-6" d="M106.24217686263877,127.58332824707031L106.70235877224738,85.5642527015334L121.51670444149849,85.5642527015334L121.72696807363863,85.73498230975812L121.79409595063912,127.58332824707031L106.24217686263877,127.58332824707031Z"/><path style="opacity: 0;" data-target="point-0-7" d="M121.79409595063912,127.58332824707031L121.72696807363863,85.73498230975812L136.71099670658938,85.73498230975812L137.40809389082548,127.58332824707031L121.79409595063912,127.58332824707031Z"/><path style="opacity: 0;" data-target="point-0-8" d="M137.81351045274437,84.82629029658392L152.26667977288866,84.82629029658392L153.70161446626722,85.89358358515813L146.66446791468627,127.58332824707031L137.40809389082548,127.58332824707031L136.71099670658938,85.73498230975812L137.81351045274437,84.82629029658392Z"/><path style="opacity: 0;" data-target="point-0-9" d="M146.66446791468627,127.58332824707031L153.70161446626722,85.89358358515813L166.11228836497685,85.89358358515813L170.06243304254417,127.58332824707031L146.66446791468627,127.58332824707031Z"/><path style="opacity: 0;" data-target="point-0-10" d="M174.70999994277955,127.58332824707031L170.06243304254417,127.58332824707031L166.11228836497685,85.89358358515813L169.4005777216046,83.56867547752965L174.70999994277955,83.56867547752965L174.70999994277955,127.58332824707031Z"/><path style="opacity: 0;" data-target="point-1-0" d="M23.366666793823242,44.053684250815884L33.81482634057628,80.36399676577055L30.41010066776267,82.9296056325355L23.366666793823242,82.9296056325355L23.366666793823242,44.053684250815884Z"/><path style="opacity: 0;" data-target="point-1-1" d="M23.366666793823242,6.3L51.11271769920063,6.3L45.13405536503073,80.36399676577054L33.81482634057628,80.36399676577055L23.366666793823242,44.053684250815884L23.366666793823242,6.3Z"/><path style="opacity: 0;" data-target="point-1-2" d="M59.23997844489294,80.74930457012469L45.72345099854692,80.74930457012469L45.13405536503073,80.36399676577054L51.11271769920063,6.3L62.53152016355275,6.3L61.007298629495516,79.39373013979399L59.23997844489294,80.74930457012469Z"/><path style="opacity: 0;" data-target="point-1-3" d="M84.0064662048159,6.3L75.28503293006246,79.39373013979399L61.007298629495516,79.39373013979399L62.53152016355275,6.3L84.0064662048159,6.3Z"/><path style="opacity: 0;" data-target="point-1-4" d="M105.67653950479314,6.3L89.71634074855098,81.28388416309063L77.48436167626,81.28388416309063L75.28503293006246,79.39373013979399L84.0064662048159,6.3L105.67653950479314,6.3Z"/><path style="opacity: 0;" data-target="point-1-5" d="M112.76334254571559,6.3L105.75964408259061,84.80483247697097L93.52387029053605,84.80483247697097L89.71634074855098,81.28388416309063L105.67653950479314,6.3L112.76334254571559,6.3Z"/><path style="opacity: 0;" data-target="point-1-6" d="M105.75964408259061,84.80483247697097L112.76334254571559,6.3L123.4336717374211,6.3L121.51670444149849,85.5642527015334L106.70235877224738,85.5642527015334L105.75964408259061,84.80483247697097Z"/><path style="opacity: 0;" data-target="point-1-7" d="M121.51670444149849,85.5642527015334L123.4336717374211,6.3L129.6841139761821,6.3L137.81351045274437,84.82629029658392L136.71099670658938,85.73498230975812L121.72696807363863,85.73498230975812L121.51670444149849,85.5642527015334Z"/><path style="opacity: 0;" data-target="point-1-8" d="M150.09625687568968,6.3L152.26667977288866,84.82629029658392L137.81351045274437,84.82629029658392L129.6841139761821,6.3L150.09625687568968,6.3Z"/><path style="opacity: 0;" data-target="point-1-9" d="M152.26667977288866,84.82629029658392L150.09625687568968,6.3L153.02752513010162,6.3L169.4005777216046,83.56867547752965L166.11228836497685,85.89358358515813L153.70161446626722,85.89358358515813L152.26667977288866,84.82629029658392Z"/><path style="opacity: 0;" data-target="point-1-10" d="M174.70999994277955,6.3L174.70999994277955,83.56867547752965L169.4005777216046,83.56867547752965L153.02752513010162,6.3L174.70999994277955,6.3Z"/></g><g class="series"><path style="opacity: 0;" data-target="point-0-0" d="M23.366666793823242,82.9296056325355L30.41010066776267,82.9296056325355L32.7132134991376,127.58332824707031L23.366666793823242,127.58332824707031L23.366666793823242,82.9296056325355Z"/><path style="opacity: 0;" data-target="point-0-1" d="M47.12387900277885,127.58332824707031L32.7132134991376,127.58332824707031L30.41010066776267,82.9296056325355L33.81482634057628,80.36399676577055L45.13405536503073,80.36399676577054L45.72345099854692,80.74930457012469L47.12387900277885,127.58332824707031Z"/><path style="opacity: 0;" data-target="point-0-2" d="M47.12387900277885,127.58332824707031L45.72345099854692,80.74930457012469L59.23997844489294,80.74930457012469L68.61330146838114,127.58332824707031L47.12387900277885,127.58332824707031Z"/><path style="opacity: 0;" data-target="point-0-3" d="M77.48436167626,81.28388416309063L71.43439476356356,127.58332824707031L68.61330146838114,127.58332824707031L59.23997844489294,80.74930457012469L61.007298629495516,79.39373013979399L75.28503293006246,79.39373013979399L77.48436167626,81.28388416309063Z"/><path style="opacity: 0;" data-target="point-0-4" d="M93.52387029053605,84.80483247697097L82.70831727152435,127.58332824707031L71.43439476356356,127.58332824707031L77.48436167626,81.28388416309063L89.71634074855098,81.28388416309063L93.52387029053605,84.80483247697097Z"/><path style="opacity: 0;" data-target="point-0-5" d="M105.75964408259061,84.80483247697097L106.70235877224738,85.5642527015334L106.24217686263877,127.58332824707031L82.70831727152435,127.58332824707031L93.52387029053605,84.80483247697097L105.75964408259061,84.80483247697097Z"/><path style="opacity: 0;" data-target="point-0-6" d="M106.24217686263877,127.58332824707031L106.70235877224738,85.5642527015334L121.51670444149849,85.5642527015334L121.72696807363863,85.73498230975812L121.79409595063912,127.58332824707031L106.24217686263877,127.58332824707031Z"/><path style="opacity: 0;" data-target="point-0-7" d="M121.79409595063912,127.58332824707031L121.72696807363863,85.73498230975812L136.71099670658938,85.73498230975812L137.40809389082548,127.58332824707031L121.79409595063912,127.58332824707031Z"/><path style="opacity: 0;" data-target="point-0-8" d="M137.81351045274437,84.82629029658392L152.26667977288866,84.82629029658392L153.70161446626722,85.89358358515813L146.66446791468627,127.58332824707031L137.40809389082548,127.58332824707031L136.71099670658938,85.73498230975812L137.81351045274437,84.82629029658392Z"/><path style="opacity: 0;" data-target="point-0-9" d="M146.66446791468627,127.58332824707031L153.70161446626722,85.89358358515813L166.11228836497685,85.89358358515813L170.06243304254417,127.58332824707031L146.66446791468627,127.58332824707031Z"/><path style="opacity: 0;" data-target="point-0-10" d="M174.70999994277955,127.58332824707031L170.06243304254417,127.58332824707031L166.11228836497685,85.89358358515813L169.4005777216046,83.56867547752965L174.70999994277955,83.56867547752965L174.70999994277955,127.58332824707031Z"/><path style="opacity: 0;" data-target="point-1-0" d="M23.366666793823242,44.053684250815884L33.81482634057628,80.36399676577055L30.41010066776267,82.9296056325355L23.366666793823242,82.9296056325355L23.366666793823242,44.053684250815884Z"/><path style="opacity: 0;" data-target="point-1-1" d="M23.366666793823242,6.3L51.11271769920063,6.3L45.13405536503073,80.36399676577054L33.81482634057628,80.36399676577055L23.366666793823242,44.053684250815884L23.366666793823242,6.3Z"/><path style="opacity: 0;" data-target="point-1-2" d="M59.23997844489294,80.74930457012469L45.72345099854692,80.74930457012469L45.13405536503073,80.36399676577054L51.11271769920063,6.3L62.53152016355275,6.3L61.007298629495516,79.39373013979399L59.23997844489294,80.74930457012469Z"/><path style="opacity: 0;" data-target="point-1-3" d="M84.0064662048159,6.3L75.28503293006246,79.39373013979399L61.007298629495516,79.39373013979399L62.53152016355275,6.3L84.0064662048159,6.3Z"/><path style="opacity: 0;" data-target="point-1-4" d="M105.67653950479314,6.3L89.71634074855098,81.28388416309063L77.48436167626,81.28388416309063L75.28503293006246,79.39373013979399L84.0064662048159,6.3L105.67653950479314,6.3Z"/><path style="opacity: 0;" data-target="point-1-5" d="M112.76334254571559,6.3L105.75964408259061,84.80483247697097L93.52387029053605,84.80483247697097L89.71634074855098,81.28388416309063L105.67653950479314,6.3L112.76334254571559,6.3Z"/><path style="opacity: 0;" data-target="point-1-6" d="M105.75964408259061,84.80483247697097L112.76334254571559,6.3L123.4336717374211,6.3L121.51670444149849,85.5642527015334L106.70235877224738,85.5642527015334L105.75964408259061,84.80483247697097Z"/><path style="opacity: 0;" data-target="point-1-7" d="M121.51670444149849,85.5642527015334L123.4336717374211,6.3L129.6841139761821,6.3L137.81351045274437,84.82629029658392L136.71099670658938,85.73498230975812L121.72696807363863,85.73498230975812L121.51670444149849,85.5642527015334Z"/><path style="opacity: 0;" data-target="point-1-8" d="M150.09625687568968,6.3L152.26667977288866,84.82629029658392L137.81351045274437,84.82629029658392L129.6841139761821,6.3L150.09625687568968,6.3Z"/><path style="opacity: 0;" data-target="point-1-9" d="M152.26667977288866,84.82629029658392L150.09625687568968,6.3L153.02752513010162,6.3L169.4005777216046,83.56867547752965L166.11228836497685,85.89358358515813L153.70161446626722,85.89358358515813L152.26667977288866,84.82629029658392Z"/><path style="opacity: 0;" data-target="point-1-10" d="M174.70999994277955,6.3L174.70999994277955,83.56867547752965L169.4005777216046,83.56867547752965L153.02752513010162,6.3L174.70999994277955,6.3Z"/></g></g></g><g class="facet-title" transform="translate(0, 0)"><rect class="facet-title-bg" height="0" fill="#eeeeee" x="23.366666793823242" clip-path="url(#facet-clip-0)"/><text class="facet-title-text" font-size="12.5" font-weight="bold" dx="0" dy="0" x="23.366666793823242" clip-path="url(#facet-clip-0)" opacity="0"/></g><clipPath class="facet-clip" id="facet-clip-0"><rect transform="translate(-26.683334350585938, -7.5)" width="228.0766667366028" height="151.48332824707032"/></clipPath></g></g><g class="annotations below"><g class="axis-highlights" transform="translate(0, 0)" style="opacity: 1;"/></g><g id="areas"/><g id="lines"><g class="series"><clipPath id="clip-0-0"><rect width="151.3433331489563" x="23.366666793823242" y="4.3" height="125.28332824707032"/></clipPath><path class="line" opacity="1" pointer-events="none" fill="none" stroke="#EF4334" stroke-width="2" transform="translate(0,0)" clip-path="url(#clip-0-0)" d="M23.366666793823242,93.35344122103177L38.48857114623743,92.57349612553523L53.651905373589756,92.12008306762695L68.77380972600395,89.09359755352315L83.89571407841814,91.06958285527156L99.01761843083234,94.89280654109075L114.18095265818465,95.05887140592135L129.30285701059884,95.03461474027195L144.42476136301303,94.78271859698957L159.54666571542722,97.33526618225096L174.70999994277955,95.8985252168626"/><text class="label" font-size="10px" alignment-baseline="middle" opacity="1" font-weight="400" x="4" fill="#EF4334" transform="translate(174.7100067138672, 95.89852142333984)"/></g><g class="series"><clipPath id="clip-0-1"><rect width="151.3433331489563" x="23.366666793823242" y="4.3" height="125.28332824707032"/></clipPath><path class="line" opacity="1" pointer-events="none" fill="none" stroke="#000000" stroke-width="2" transform="translate(0,0)" clip-path="url(#clip-0-1)" d="M23.366666793823242,72.50577004403922L38.48857114623743,68.15449740600586L53.651905373589756,69.37852607262244L68.77380972600395,69.69386272606482L83.89571407841814,71.4981854709097L99.01761843083234,74.71685841285118L114.18095265818465,76.06963399714544L129.30285701059884,76.4353498792443L144.42476136301303,74.86986199617827L159.54666571542722,74.45190098806529L174.70999994277955,71.23882573819672"/><text class="label" font-size="10px" alignment-baseline="middle" opacity="1" font-weight="400" x="4" fill="#000000" transform="translate(174.7100067138672, 71.23882293701172)"/></g></g><g id="data-points"><g class="series" transform="translate(0,0)" clip-path="url(#facet-clip-0)"><path class="data-point" fill="#EF4334" data-type="point" transform="translate(0, 0)" d="M21.366666793823242,93.35344122103177A2,2,0,1,1,25.366666793823242,93.35344122103177A2,2,0,1,1,21.366666793823242,93.35344122103177Z" opacity="1" id="point-0-0"/><path class="data-point" fill="#EF4334" data-type="point" transform="translate(0, 0)" d="M36.48857114623743,92.57349612553523A2,2,0,1,1,40.48857114623743,92.57349612553523A2,2,0,1,1,36.48857114623743,92.57349612553523Z" opacity="1" id="point-0-1"/><path class="data-point" fill="#EF4334" data-type="point" transform="translate(0, 0)" d="M51.651905373589756,92.12008306762695A2,2,0,1,1,55.651905373589756,92.12008306762695A2,2,0,1,1,51.651905373589756,92.12008306762695Z" opacity="1" id="point-0-2"/><path class="data-point" fill="#EF4334" data-type="point" transform="translate(0, 0)" d="M66.77380972600395,89.09359755352315A2,2,0,1,1,70.77380972600395,89.09359755352315A2,2,0,1,1,66.77380972600395,89.09359755352315Z" opacity="1" id="point-0-3"/><path class="data-point" fill="#EF4334" data-type="point" transform="translate(0, 0)" d="M81.89571407841814,91.06958285527156A2,2,0,1,1,85.89571407841814,91.06958285527156A2,2,0,1,1,81.89571407841814,91.06958285527156Z" opacity="1" id="point-0-4"/><path class="data-point" fill="#EF4334" data-type="point" transform="translate(0, 0)" d="M97.01761843083234,94.89280654109075A2,2,0,1,1,101.01761843083234,94.89280654109075A2,2,0,1,1,97.01761843083234,94.89280654109075Z" opacity="1" id="point-0-5"/><path class="data-point" fill="#EF4334" data-type="point" transform="translate(0, 0)" d="M112.18095265818465,95.05887140592135A2,2,0,1,1,116.18095265818465,95.05887140592135A2,2,0,1,1,112.18095265818465,95.05887140592135Z" opacity="1" id="point-0-6"/><path class="data-point" fill="#EF4334" data-type="point" transform="translate(0, 0)" d="M127.30285701059884,95.03461474027195A2,2,0,1,1,131.30285701059884,95.03461474027195A2,2,0,1,1,127.30285701059884,95.03461474027195Z" opacity="1" id="point-0-7"/><path class="data-point" fill="#EF4334" data-type="point" transform="translate(0, 0)" d="M142.42476136301303,94.78271859698957A2,2,0,1,1,146.42476136301303,94.78271859698957A2,2,0,1,1,142.42476136301303,94.78271859698957Z" opacity="1" id="point-0-8"/><path class="data-point" fill="#EF4334" data-type="point" transform="translate(0, 0)" d="M157.54666571542722,97.33526618225096A2,2,0,1,1,161.54666571542722,97.33526618225096A2,2,0,1,1,157.54666571542722,97.33526618225096Z" opacity="1" id="point-0-9"/><path class="data-point" fill="#EF4334" data-type="point" transform="translate(0, 0)" d="M172.70999994277955,95.8985252168626A2,2,0,1,1,176.70999994277955,95.8985252168626A2,2,0,1,1,172.70999994277955,95.8985252168626Z" opacity="1" id="point-0-10"/></g><g class="series" transform="translate(0,0)" clip-path="url(#facet-clip-0)"><path class="data-point" data-type="point" opacity="1" fill="#000000" d="M21.366666793823242,72.50577004403922A2,2,0,1,1,25.366666793823242,72.50577004403922A2,2,0,1,1,21.366666793823242,72.50577004403922Z" transform="translate(0, 0)" id="point-1-0"/><path class="data-point" data-type="point" opacity="1" fill="#000000" d="M36.48857114623743,68.15449740600586A2,2,0,1,1,40.48857114623743,68.15449740600586A2,2,0,1,1,36.48857114623743,68.15449740600586Z" transform="translate(0, 0)" id="point-1-1"/><path class="data-point" data-type="point" opacity="1" fill="#000000" d="M51.651905373589756,69.37852607262244A2,2,0,1,1,55.651905373589756,69.37852607262244A2,2,0,1,1,51.651905373589756,69.37852607262244Z" transform="translate(0, 0)" id="point-1-2"/><path class="data-point" data-type="point" opacity="1" fill="#000000" d="M66.77380972600395,69.69386272606482A2,2,0,1,1,70.77380972600395,69.69386272606482A2,2,0,1,1,66.77380972600395,69.69386272606482Z" transform="translate(0, 0)" id="point-1-3"/><path class="data-point" data-type="point" opacity="1" fill="#000000" d="M81.89571407841814,71.4981854709097A2,2,0,1,1,85.89571407841814,71.4981854709097A2,2,0,1,1,81.89571407841814,71.4981854709097Z" transform="translate(0, 0)" id="point-1-4"/><path class="data-point" data-type="point" opacity="1" fill="#000000" d="M97.01761843083234,74.71685841285118A2,2,0,1,1,101.01761843083234,74.71685841285118A2,2,0,1,1,97.01761843083234,74.71685841285118Z" transform="translate(0, 0)" id="point-1-5"/><path class="data-point" data-type="point" opacity="1" fill="#000000" d="M112.18095265818465,76.06963399714544A2,2,0,1,1,116.18095265818465,76.06963399714544A2,2,0,1,1,112.18095265818465,76.06963399714544Z" transform="translate(0, 0)" id="point-1-6"/><path class="data-point" data-type="point" opacity="1" fill="#000000" d="M127.30285701059884,76.4353498792443A2,2,0,1,1,131.30285701059884,76.4353498792443A2,2,0,1,1,127.30285701059884,76.4353498792443Z" transform="translate(0, 0)" id="point-1-7"/><path class="data-point" data-type="point" opacity="1" fill="#000000" d="M142.42476136301303,74.86986199617827A2,2,0,1,1,146.42476136301303,74.86986199617827A2,2,0,1,1,142.42476136301303,74.86986199617827Z" transform="translate(0, 0)" id="point-1-8"/><path class="data-point" data-type="point" opacity="1" fill="#000000" d="M157.54666571542722,74.45190098806529A2,2,0,1,1,161.54666571542722,74.45190098806529A2,2,0,1,1,157.54666571542722,74.45190098806529Z" transform="translate(0, 0)" id="point-1-9"/><path class="data-point" data-type="point" opacity="1" fill="#000000" d="M172.70999994277955,71.23882573819672A2,2,0,1,1,176.70999994277955,71.23882573819672A2,2,0,1,1,172.70999994277955,71.23882573819672Z" transform="translate(0, 0)" id="point-1-10"/></g></g><g id="lines-secondary"/><g id="data-point-labels"><g class="series" transform="translate(0,0)" clip-path="url(#facet-clip-0)"/><g class="series" transform="translate(0,0)" clip-path="url(#facet-clip-0)"/></g><g id="stack-labels"/><g class="annotations above"><g class="axis-highlights" transform="translate(0, 0)" style="opacity: 1;"/></g></svg>