<?xml version="1.0" encoding="UTF-8"?>
<svg width="15px" height="15px" viewBox="0 0 15 15" version="1.1" xmlns="http://www.w3.org/2000/svg" xmlns:xlink="http://www.w3.org/1999/xlink">
    <!-- Generator: Sketch 44.1 (41455) - http://www.bohemiancoding.com/sketch -->
    <title></title>
    <desc>Created with Sketch.</desc>
    <defs></defs>
    <g id="Page-1" stroke="none" stroke-width="1" fill="none" fill-rule="evenodd">
        <g id="Artboard" transform="translate(-296.000000, -105.000000)" fill="#333333">
            <path d="M310.210938,116.492188 C310.210938,116.804689 310.101564,117.070311 309.882812,117.289062 L308.289062,118.882812 C308.070311,119.101564 307.804689,119.210938 307.492188,119.210938 C307.179686,119.210938 306.914064,119.101564 306.695312,118.882812 L303.25,115.4375 L299.804688,118.882812 C299.585936,119.101564 299.320314,119.210938 299.007812,119.210938 C298.695311,119.210938 298.429689,119.101564 298.210938,118.882812 L296.617188,117.289062 C296.398436,117.070311 296.289062,116.804689 296.289062,116.492188 C296.289062,116.179686 296.398436,115.914064 296.617188,115.695312 L300.0625,112.25 L296.617188,108.804688 C296.398436,108.585936 296.289062,108.320314 296.289062,108.007812 C296.289062,107.695311 296.398436,107.429689 296.617188,107.210938 L298.210938,105.617188 C298.429689,105.398436 298.695311,105.289062 299.007812,105.289062 C299.320314,105.289062 299.585936,105.398436 299.804688,105.617188 L303.25,109.0625 L306.695312,105.617188 C306.914064,105.398436 307.179686,105.289062 307.492188,105.289062 C307.804689,105.289062 308.070311,105.398436 308.289062,105.617188 L309.882812,107.210938 C310.101564,107.429689 310.210938,107.695311 310.210938,108.007812 C310.210938,108.320314 310.101564,108.585936 309.882812,108.804688 L306.4375,112.25 L309.882812,115.695312 C310.101564,115.914064 310.210938,116.179686 310.210938,116.492188 Z" id=""></path>
        </g>
    </g>
</svg>