<?xml version="1.0" encoding="UTF-8"?>
<svg width="16px" height="17px" viewBox="0 0 16 17" version="1.1" xmlns="http://www.w3.org/2000/svg" xmlns:xlink="http://www.w3.org/1999/xlink">
    <!-- Generator: Sketch 49.3 (51167) - http://www.bohemiancoding.com/sketch -->
    <title></title>
    <desc>Created with Sketch.</desc>
    <defs></defs>
    <g id="Page-1" stroke="none" stroke-width="1" fill="none" fill-rule="evenodd">
        <path d="M4.05803571,10.7008929 L5.58482143,12.2276786 L5.0625,12.75 L4.5,12.75 L4.5,11.7857143 L3.53571429,11.7857143 L3.53571429,11.2232143 L4.05803571,10.7008929 Z M8.21651786,6.78348214 C8.31026833,6.87053615 8.30022378,6.97098157 8.18638393,7.08482143 L5.26339286,10.0078125 C5.149553,10.1216524 5.04910758,10.1316969 4.96205357,10.0379464 C4.8683031,9.95089242 4.87834765,9.850447 4.9921875,9.73660714 L7.91517857,6.81361607 C8.02901843,6.69977622 8.12946385,6.68973167 8.21651786,6.78348214 Z M5.46428571,13.7142857 L10.9285714,8.25 L8.03571429,5.35714286 L2.57142857,10.8214286 L2.57142857,13.7142857 L5.46428571,13.7142857 Z M11.5714286,7.60714286 L12.4955357,6.68303571 C12.6830367,6.49553478 12.7767857,6.26785848 12.7767857,6 C12.7767857,5.73214152 12.6830367,5.50446522 12.4955357,5.31696429 L10.96875,3.79017857 C10.7812491,3.60267763 10.5535728,3.50892857 10.2857143,3.50892857 C10.0178558,3.50892857 9.79017951,3.60267763 9.60267857,3.79017857 L8.67857143,4.71428571 L11.5714286,7.60714286 Z M15.4285714,3.75 L15.4285714,13.3928571 C15.4285714,14.1897361 15.1456502,14.8710909 14.5797991,15.436942 C14.0139481,16.002793 13.3325933,16.2857143 12.5357143,16.2857143 L2.89285714,16.2857143 C2.09597816,16.2857143 1.41462336,16.002793 0.848772321,15.436942 C0.282921278,14.8710909 0,14.1897361 0,13.3928571 L0,3.75 C0,2.95312102 0.282921278,2.27176622 0.848772321,1.70591518 C1.41462336,1.14006414 2.09597816,0.857142857 2.89285714,0.857142857 L12.5357143,0.857142857 C13.3325933,0.857142857 14.0139481,1.14006414 14.5797991,1.70591518 C15.1456502,2.27176622 15.4285714,2.95312102 15.4285714,3.75 Z" id="" fill="#333333"></path>
    </g>
</svg>