<?xml version="1.0" encoding="UTF-8"?>
<svg width="33px" height="30px" viewBox="0 0 33 30" version="1.1" xmlns="http://www.w3.org/2000/svg" xmlns:xlink="http://www.w3.org/1999/xlink">
    <!-- Generator: Sketch 51 (57462) - http://www.bohemiancoding.com/sketch -->
    <title>icon_align-left</title>
    <desc>Created with Sketch.</desc>
    <defs></defs>
    <g id="Page-1" stroke="none" stroke-width="1" fill="none" fill-rule="evenodd">
        <g id="icon_align-left">
            <path d="M29,21.4285714 L29,23.1428571 C29,23.3750012 28.9151794,23.575892 28.7455357,23.7455357 C28.575892,23.9151794 28.3750012,24 28.1428571,24 L5.85714286,24 C5.62499884,24 5.42410799,23.9151794 5.25446429,23.7455357 C5.08482058,23.575892 5,23.3750012 5,23.1428571 L5,21.4285714 C5,21.1964274 5.08482058,20.9955366 5.25446429,20.8258929 C5.42410799,20.6562492 5.62499884,20.5714286 5.85714286,20.5714286 L28.1428571,20.5714286 C28.3750012,20.5714286 28.575892,20.6562492 28.7455357,20.8258929 C28.9151794,20.9955366 29,21.1964274 29,21.4285714 Z M23.8571429,16.2857143 L23.8571429,18 C23.8571429,18.232144 23.7723223,18.4330349 23.6026786,18.6026786 C23.4330349,18.7723223 23.232144,18.8571429 23,18.8571429 L5.85714286,18.8571429 C5.62499884,18.8571429 5.42410799,18.7723223 5.25446429,18.6026786 C5.08482058,18.4330349 5,18.232144 5,18 L5,16.2857143 C5,16.0535703 5.08482058,15.8526794 5.25446429,15.6830357 C5.42410799,15.513392 5.62499884,15.4285714 5.85714286,15.4285714 L23,15.4285714 C23.232144,15.4285714 23.4330349,15.513392 23.6026786,15.6830357 C23.7723223,15.8526794 23.8571429,16.0535703 23.8571429,16.2857143 Z M27.2857143,11.1428571 L27.2857143,12.8571429 C27.2857143,13.0892869 27.2008937,13.2901777 27.03125,13.4598214 C26.8616063,13.6294651 26.6607154,13.7142857 26.4285714,13.7142857 L5.85714286,13.7142857 C5.62499884,13.7142857 5.42410799,13.6294651 5.25446429,13.4598214 C5.08482058,13.2901777 5,13.0892869 5,12.8571429 L5,11.1428571 C5,10.9107131 5.08482058,10.7098223 5.25446429,10.5401786 C5.42410799,10.3705349 5.62499884,10.2857143 5.85714286,10.2857143 L26.4285714,10.2857143 C26.6607154,10.2857143 26.8616063,10.3705349 27.03125,10.5401786 C27.2008937,10.7098223 27.2857143,10.9107131 27.2857143,11.1428571 Z M22.1428571,6 L22.1428571,7.71428571 C22.1428571,7.94642973 22.0580366,8.14732058 21.8883929,8.31696429 C21.7187492,8.48660799 21.5178583,8.57142857 21.2857143,8.57142857 L5.85714286,8.57142857 C5.62499884,8.57142857 5.42410799,8.48660799 5.25446429,8.31696429 C5.08482058,8.14732058 5,7.94642973 5,7.71428571 L5,6 C5,5.76785598 5.08482058,5.56696513 5.25446429,5.39732143 C5.42410799,5.22767772 5.62499884,5.14285714 5.85714286,5.14285714 L21.2857143,5.14285714 C21.5178583,5.14285714 21.7187492,5.22767772 21.8883929,5.39732143 C22.0580366,5.56696513 22.1428571,5.76785598 22.1428571,6 Z" id="" fill="#000000"></path>
            <rect id="Rectangle-3-Copy-9" fill-opacity="0.153244" fill="#FFFFFF" opacity="0.02" x="0" y="0" width="33" height="30"></rect>
        </g>
    </g>
</svg>