<?xml version="1.0" encoding="UTF-8"?>
<svg width="17px" height="17px" viewBox="0 0 17 17" version="1.1" xmlns="http://www.w3.org/2000/svg" xmlns:xlink="http://www.w3.org/1999/xlink">
    <!-- Generator: Sketch 49.3 (51167) - http://www.bohemiancoding.com/sketch -->
    <title></title>
    <desc>Created with Sketch.</desc>
    <defs></defs>
    <g id="Page-1" stroke="none" stroke-width="1" fill="none" fill-rule="evenodd">
        <path d="M1.60714286,15 L7.71428571,15 L7.71428571,3.42857143 L1.28571429,3.42857143 L1.28571429,14.6785714 C1.28571429,14.7656254 1.317522,14.8409595 1.38113839,14.9045759 C1.44475478,14.9681923 1.52008885,15 1.60714286,15 Z M15.4285714,14.6785714 L15.4285714,3.42857143 L9,3.42857143 L9,15 L15.1071429,15 C15.1941969,15 15.2695309,14.9681923 15.3331473,14.9045759 C15.3967637,14.8409595 15.4285714,14.7656254 15.4285714,14.6785714 Z M16.7142857,2.46428571 L16.7142857,14.6785714 C16.7142857,15.1205379 16.5569212,15.4988824 16.2421875,15.8136161 C15.9274538,16.1283498 15.5491094,16.2857143 15.1071429,16.2857143 L1.60714286,16.2857143 C1.16517636,16.2857143 0.786831931,16.1283498 0.472098214,15.8136161 C0.157364498,15.4988824 0,15.1205379 0,14.6785714 L0,2.46428571 C0,2.02231922 0.157364498,1.64397479 0.472098214,1.32924107 C0.786831931,1.01450735 1.16517636,0.857142857 1.60714286,0.857142857 L15.1071429,0.857142857 C15.5491094,0.857142857 15.9274538,1.01450735 16.2421875,1.32924107 C16.5569212,1.64397479 16.7142857,2.02231922 16.7142857,2.46428571 Z" id="" fill="#333333"></path>
    </g>
</svg>