<?xml version="1.0" encoding="UTF-8"?>
<svg width="20px" height="17px" viewBox="0 0 20 17" version="1.1" xmlns="http://www.w3.org/2000/svg" xmlns:xlink="http://www.w3.org/1999/xlink">
    <g id="Page-1" stroke="none" stroke-width="1" fill="none" fill-rule="evenodd">
        <path d="M5.86607143,3.99107143 C6.2410733,4.3660733 6.42857143,4.82142589 6.42857143,5.35714286 C6.42857143,5.89285982 6.2410733,6.34821241 5.86607143,6.72321429 C5.49106955,7.09821616 5.03571696,7.28571429 4.5,7.28571429 C3.96428304,7.28571429 3.50893045,7.09821616 3.13392857,6.72321429 C2.7589267,6.34821241 2.57142857,5.89285982 2.57142857,5.35714286 C2.57142857,4.82142589 2.7589267,4.3660733 3.13392857,3.99107143 C3.50893045,3.61606955 3.96428304,3.42857143 4.5,3.42857143 C5.03571696,3.42857143 5.49106955,3.61606955 5.86607143,3.99107143 Z M16.7142857,9.21428571 L16.7142857,13.7142857 L2.57142857,13.7142857 L2.57142857,11.7857143 L5.78571429,8.57142857 L7.39285714,10.1785714 L12.5357143,5.03571429 L16.7142857,9.21428571 Z M17.6785714,2.14285714 L1.60714286,2.14285714 C1.52008885,2.14285714 1.44475478,2.17466486 1.38113839,2.23828125 C1.317522,2.30189764 1.28571429,2.37723171 1.28571429,2.46428571 L1.28571429,14.6785714 C1.28571429,14.7656254 1.317522,14.8409595 1.38113839,14.9045759 C1.44475478,14.9681923 1.52008885,15 1.60714286,15 L17.6785714,15 C17.7656254,15 17.8409595,14.9681923 17.9045759,14.9045759 C17.9681923,14.8409595 18,14.7656254 18,14.6785714 L18,2.46428571 C18,2.37723171 17.9681923,2.30189764 17.9045759,2.23828125 C17.8409595,2.17466486 17.7656254,2.14285714 17.6785714,2.14285714 Z M19.2857143,2.46428571 L19.2857143,14.6785714 C19.2857143,15.1205379 19.1283498,15.4988824 18.8136161,15.8136161 C18.4988824,16.1283498 18.1205379,16.2857143 17.6785714,16.2857143 L1.60714286,16.2857143 C1.16517636,16.2857143 0.786831931,16.1283498 0.472098214,15.8136161 C0.157364498,15.4988824 0,15.1205379 0,14.6785714 L0,2.46428571 C0,2.02231922 0.157364498,1.64397479 0.472098214,1.32924107 C0.786831931,1.01450735 1.16517636,0.857142857 1.60714286,0.857142857 L17.6785714,0.857142857 C18.1205379,0.857142857 18.4988824,1.01450735 18.8136161,1.32924107 C19.1283498,1.64397479 19.2857143,2.02231922 19.2857143,2.46428571 Z" fill="#333333"></path>
    </g>
</svg>